<svg xmlns="http://www.w3.org/2000/svg" width="209.43" height="35" viewBox="0 0 209.43 35"><rect class="svg__rect" x="0" y="0" width="55.28" height="35" fill="#4CF331" data-darkreader-inline-fill="" style="--darkreader-inline-fill: #43ac0a;"/><rect class="svg__rect" x="53.28" y="0" width="156.15" height="35" fill="#389AD5" data-darkreader-inline-fill="" style="--darkreader-inline-fill: #2272a2;"/><path class="svg__text" d="M15.70 22L14.22 22L14.22 13.47L19.64 13.47L19.64 14.66L15.70 14.66L15.70 17.20L19.13 17.20L19.13 18.38L15.70 18.38L15.70 22ZM23.53 18.00L23.53 18.00L23.53 17.52Q23.53 16.28 23.97 15.32Q24.41 14.37 25.22 13.86Q26.02 13.35 27.07 13.35Q28.11 13.35 28.92 13.85Q29.72 14.35 30.16 15.29Q30.60 16.23 30.61 17.48L30.61 17.48L30.61 17.96Q30.61 19.21 30.17 20.16Q29.74 21.10 28.93 21.61Q28.13 22.12 27.08 22.12L27.08 22.12Q26.04 22.12 25.23 21.61Q24.42 21.10 23.98 20.17Q23.53 19.23 23.53 18.00ZM25.01 17.46L25.01 17.96Q25.01 19.36 25.56 20.13Q26.11 20.90 27.08 20.90L27.08 20.90Q28.06 20.90 28.59 20.15Q29.12 19.40 29.12 17.96L29.12 17.96L29.12 17.51Q29.12 16.09 28.59 15.34Q28.05 14.58 27.07 14.58L27.07 14.58Q26.11 14.58 25.56 15.33Q25.02 16.09 25.01 17.46L25.01 17.46ZM36.55 22L35.07 22L35.07 13.47L38.07 13.47Q39.55 13.47 40.35 14.13Q41.15 14.79 41.15 16.05L41.15 16.05Q41.15 16.90 40.74 17.48Q40.33 18.06 39.59 18.37L39.59 18.37L41.50 21.92L41.50 22L39.92 22L38.21 18.71L36.55 18.71L36.55 22ZM36.55 14.66L36.55 17.52L38.08 17.52Q38.83 17.52 39.25 17.15Q39.67 16.77 39.67 16.11L39.67 16.11Q39.67 15.43 39.28 15.05Q38.89 14.68 38.12 14.66L38.12 14.66L36.55 14.66Z" fill="#FFFFFF" data-darkreader-inline-fill="" style="--darkreader-inline-fill: #181a1b;"/><path class="svg__text" d="M73.85 22L67.47 22L67.47 13.60L69.85 13.60L69.85 20.11L73.85 20.11L73.85 22ZM85.02 22L78.27 22L78.27 13.60L84.86 13.60L84.86 15.44L80.63 15.44L80.63 16.85L84.36 16.85L84.36 18.63L80.63 18.63L80.63 20.17L85.02 20.17L85.02 22ZM89.24 21.24L89.24 21.24L90.01 19.49Q90.58 19.86 91.32 20.09Q92.07 20.32 92.79 20.32L92.79 20.32Q94.15 20.32 94.16 19.64L94.16 19.64Q94.16 19.28 93.77 19.11Q93.38 18.93 92.51 18.74L92.51 18.74Q91.56 18.53 90.93 18.30Q90.29 18.06 89.84 17.55Q89.38 17.03 89.38 16.16L89.38 16.16Q89.38 15.39 89.80 14.77Q90.22 14.15 91.05 13.79Q91.89 13.43 93.10 13.43L93.10 13.43Q93.92 13.43 94.73 13.62Q95.53 13.80 96.15 14.17L96.15 14.17L95.42 15.93Q94.22 15.28 93.09 15.28L93.09 15.28Q92.38 15.28 92.05 15.49Q91.73 15.70 91.73 16.04L91.73 16.04Q91.73 16.37 92.12 16.54Q92.50 16.71 93.35 16.89L93.35 16.89Q94.31 17.10 94.94 17.33Q95.57 17.56 96.03 18.07Q96.50 18.58 96.50 19.46L96.50 19.46Q96.50 20.21 96.08 20.83Q95.66 21.44 94.82 21.80Q93.98 22.17 92.77 22.17L92.77 22.17Q91.75 22.17 90.79 21.92Q89.83 21.67 89.24 21.24ZM107.46 21.24L107.46 21.24L108.24 19.49Q108.80 19.86 109.54 20.09Q110.29 20.32 111.01 20.32L111.01 20.32Q112.37 20.32 112.38 19.64L112.38 19.64Q112.38 19.28 111.99 19.11Q111.60 18.93 110.73 18.74L110.73 18.74Q109.78 18.53 109.15 18.30Q108.51 18.06 108.06 17.55Q107.60 17.03 107.60 16.16L107.60 16.16Q107.60 15.39 108.02 14.77Q108.44 14.15 109.28 13.79Q110.11 13.43 111.32 13.43L111.32 13.43Q112.15 13.43 112.95 13.62Q113.76 13.80 114.37 14.17L114.37 14.17L113.64 15.93Q112.44 15.28 111.31 15.28L111.31 15.28Q110.60 15.28 110.28 15.49Q109.95 15.70 109.95 16.04L109.95 16.04Q109.95 16.37 110.34 16.54Q110.72 16.71 111.57 16.89L111.57 16.89Q112.53 17.10 113.16 17.33Q113.79 17.56 114.25 18.07Q114.72 18.58 114.72 19.46L114.72 19.46Q114.72 20.21 114.30 20.83Q113.88 21.44 113.04 21.80Q112.20 22.17 111.00 22.17L111.00 22.17Q109.98 22.17 109.02 21.92Q108.06 21.67 107.46 21.24ZM121.09 15.48L118.50 15.48L118.50 13.60L126.03 13.60L126.03 15.48L123.46 15.48L123.46 22L121.09 22L121.09 15.48ZM129.97 17.80L129.97 17.80Q129.97 16.55 130.57 15.55Q131.18 14.56 132.24 14.00Q133.30 13.43 134.63 13.43L134.63 13.43Q135.96 13.43 137.03 14.00Q138.09 14.56 138.70 15.55Q139.30 16.55 139.30 17.80L139.30 17.80Q139.30 19.05 138.70 20.04Q138.09 21.04 137.03 21.60Q135.97 22.17 134.63 22.17L134.63 22.17Q133.30 22.17 132.24 21.60Q131.18 21.04 130.57 20.04Q129.97 19.05 129.97 17.80ZM132.37 17.80L132.37 17.80Q132.37 18.51 132.67 19.05Q132.97 19.60 133.49 19.90Q134.00 20.20 134.63 20.20L134.63 20.20Q135.27 20.20 135.79 19.90Q136.30 19.60 136.60 19.05Q136.90 18.51 136.90 17.80L136.90 17.80Q136.90 17.09 136.60 16.54Q136.30 16 135.79 15.70Q135.27 15.40 134.63 15.40L134.63 15.40Q134.00 15.40 133.48 15.70Q132.97 16 132.67 16.54Q132.37 17.09 132.37 17.80ZM143.60 17.80L143.60 17.80Q143.60 16.55 144.21 15.55Q144.81 14.56 145.88 14.00Q146.94 13.43 148.27 13.43L148.27 13.43Q149.60 13.43 150.66 14.00Q151.73 14.56 152.33 15.55Q152.94 16.55 152.94 17.80L152.94 17.80Q152.94 19.05 152.33 20.04Q151.73 21.04 150.67 21.60Q149.60 22.17 148.27 22.17L148.27 22.17Q146.94 22.17 145.88 21.60Q144.81 21.04 144.21 20.04Q143.60 19.05 143.60 17.80ZM146.00 17.80L146.00 17.80Q146.00 18.51 146.30 19.05Q146.60 19.60 147.12 19.90Q147.64 20.20 148.27 20.20L148.27 20.20Q148.91 20.20 149.42 19.90Q149.94 19.60 150.24 19.05Q150.54 18.51 150.54 17.80L150.54 17.80Q150.54 17.09 150.24 16.54Q149.94 16 149.42 15.70Q148.91 15.40 148.27 15.40L148.27 15.40Q147.63 15.40 147.12 15.70Q146.60 16 146.30 16.54Q146.00 17.09 146.00 17.80ZM160.05 22L157.67 22L157.67 13.60L161.51 13.60Q162.65 13.60 163.49 13.98Q164.33 14.35 164.79 15.06Q165.24 15.76 165.24 16.71L165.24 16.71Q165.24 17.66 164.79 18.35Q164.33 19.05 163.49 19.42Q162.65 19.80 161.51 19.80L161.51 19.80L160.05 19.80L160.05 22ZM160.05 15.47L160.05 17.93L161.36 17.93Q162.10 17.93 162.47 17.61Q162.84 17.29 162.84 16.71L162.84 16.71Q162.84 16.12 162.47 15.80Q162.10 15.47 161.36 15.47L161.36 15.47L160.05 15.47ZM172.37 22L170.00 22L170.00 13.60L172.37 13.60L172.37 22ZM181.52 22L177.55 22L177.55 13.60L181.52 13.60Q182.90 13.60 183.97 14.12Q185.04 14.63 185.63 15.58Q186.21 16.53 186.21 17.80L186.21 17.80Q186.21 19.07 185.63 20.02Q185.04 20.97 183.97 21.48Q182.90 22 181.52 22L181.52 22ZM179.93 15.50L179.93 20.10L181.43 20.10Q182.50 20.10 183.16 19.49Q183.81 18.88 183.81 17.80L183.81 17.80Q183.81 16.72 183.16 16.11Q182.50 15.50 181.43 15.50L181.43 15.50L179.93 15.50ZM190.36 21.24L190.36 21.24L191.14 19.49Q191.70 19.86 192.44 20.09Q193.19 20.32 193.91 20.32L193.91 20.32Q195.27 20.32 195.28 19.64L195.28 19.64Q195.28 19.28 194.89 19.11Q194.50 18.93 193.63 18.74L193.63 18.74Q192.68 18.53 192.05 18.30Q191.41 18.06 190.96 17.55Q190.50 17.03 190.50 16.16L190.50 16.16Q190.50 15.39 190.92 14.77Q191.34 14.15 192.18 13.79Q193.01 13.43 194.22 13.43L194.22 13.43Q195.04 13.43 195.85 13.62Q196.66 13.80 197.27 14.17L197.27 14.17L196.54 15.93Q195.34 15.28 194.21 15.28L194.21 15.28Q193.50 15.28 193.17 15.49Q192.85 15.70 192.85 16.04L192.85 16.04Q192.85 16.37 193.24 16.54Q193.62 16.71 194.47 16.89L194.47 16.89Q195.43 17.10 196.06 17.33Q196.69 17.56 197.15 18.07Q197.62 18.58 197.62 19.46L197.62 19.46Q197.62 20.21 197.20 20.83Q196.78 21.44 195.94 21.80Q195.10 22.17 193.90 22.17L193.90 22.17Q192.88 22.17 191.92 21.92Q190.95 21.67 190.36 21.24Z" fill="#FFFFFF" x="66.28" data-darkreader-inline-fill="" style="--darkreader-inline-fill: #181a1b;"/></svg>